# Blender v2.93.5 OBJ File: ''
# www.blender.org
mtllib TestCube.mtl
o Cube
v 0.582898 0.582898 -1.000000
v 0.582898 1.000000 -0.582898
v 1.000000 0.582898 -0.582898
v 0.582898 -1.000000 -0.582898
v 0.582898 -0.582898 -1.000000
v 1.000000 -0.582898 -0.582898
v 1.000000 0.582898 0.582898
v 0.582898 1.000000 0.582898
v 0.582898 0.582898 1.000000
v 1.000000 -0.582898 0.582898
v 0.582898 -0.582898 1.000000
v 0.582898 -1.000000 0.582898
v -0.582898 0.582898 -1.000000
v -1.000000 0.582898 -0.582898
v -0.582898 1.000000 -0.582898
v -1.000000 -0.582898 -0.582898
v -0.582898 -0.582898 -1.000000
v -0.582898 -1.000000 -0.582898
v -1.000000 0.582898 0.582898
v -0.582898 0.582898 1.000000
v -0.582898 1.000000 0.582898
v -0.582898 -1.000000 0.582898
v -0.582898 -0.582898 1.000000
v -1.000000 -0.582898 0.582898
v 0.582898 0.300191 -1.000000
v 0.582898 0.717294 -0.582898
v 1.000000 0.300191 -0.582898
v 0.582898 -1.282706 -0.582898
v 0.582898 -0.865604 -1.000000
v 1.000000 -0.865604 -0.582898
v 1.000000 0.300191 0.582898
v 0.582898 0.717294 0.582898
v 0.582898 0.300191 1.000000
v 1.000000 -0.865604 0.582898
v 0.582898 -0.865604 1.000000
v 0.582898 -1.282706 0.582898
v -0.582898 0.300191 -1.000000
v -1.000000 0.300191 -0.582898
v -0.582898 0.717294 -0.582898
v -1.000000 -0.865604 -0.582898
v -0.582898 -0.865604 -1.000000
v -0.582898 -1.282706 -0.582898
v -1.000000 0.300191 0.582898
v -0.582898 0.300191 1.000000
v -0.582898 0.717294 0.582898
v -0.582898 -1.282706 0.582898
v -0.582898 -0.865604 1.000000
v -1.000000 -0.865604 0.582898
vt 0.177138 0.552138
vt 0.177138 0.697862
vt 0.322862 0.697862
vt 0.322862 0.552138
vt 0.427138 0.052138
vt 0.427138 0.197862
vt 0.572862 0.197862
vt 0.572862 0.052138
vt 0.427138 0.802138
vt 0.427138 0.947862
vt 0.572862 0.947862
vt 0.572862 0.802138
vt 0.677138 0.552138
vt 0.677138 0.697862
vt 0.822862 0.697862
vt 0.822862 0.552138
vt 0.427138 0.552138
vt 0.427138 0.697862
vt 0.572862 0.697862
vt 0.572862 0.552138
vt 0.572862 0.447862
vt 0.572862 0.500000
vt 0.625000 0.447862
vt 0.375000 0.552138
vt 0.322862 0.500000
vt 0.572862 0.750000
vt 0.625000 0.697862
vt 0.427138 0.750000
vt 0.375000 0.802138
vt 0.375000 0.802138
vt 0.572862 0.250000
vt 0.625000 0.197862
vt 0.572862 0.250000
vt 0.375000 0.197862
vt 0.427138 0.250000
vt 0.625000 0.052138
vt 0.572862 0.000000
vt 0.125000 0.697862
vt 0.177138 0.750000
vt 0.125000 0.552138
vt 0.177138 0.500000
vt 0.427138 0.447862
vt 0.427138 0.000000
vt 0.572862 0.302138
vt 0.427138 0.302138
vt 0.625000 0.802138
vt 0.625000 0.947862
vt 0.322862 0.750000
vt 0.625000 0.302138
vt 0.177138 0.552138
vt 0.322862 0.552138
vt 0.322862 0.697862
vt 0.177138 0.697862
vt 0.427138 0.052138
vt 0.572862 0.052138
vt 0.572862 0.197862
vt 0.427138 0.197862
vt 0.427138 0.802138
vt 0.572862 0.802138
vt 0.572862 0.947862
vt 0.427138 0.947862
vt 0.677138 0.552138
vt 0.822862 0.552138
vt 0.822862 0.697862
vt 0.677138 0.697862
vt 0.427138 0.552138
vt 0.572862 0.552138
vt 0.572862 0.697862
vt 0.427138 0.697862
vt 0.572862 0.447862
vt 0.625000 0.447862
vt 0.572862 0.500000
vt 0.322862 0.500000
vt 0.375000 0.552138
vt 0.625000 0.697862
vt 0.572862 0.750000
vt 0.427138 0.750000
vt 0.375000 0.802138
vt 0.375000 0.802138
vt 0.572862 0.250000
vt 0.572862 0.250000
vt 0.625000 0.197862
vt 0.427138 0.250000
vt 0.375000 0.197862
vt 0.572862 0.000000
vt 0.625000 0.052138
vt 0.177138 0.750000
vt 0.125000 0.697862
vt 0.125000 0.552138
vt 0.177138 0.500000
vt 0.427138 0.447862
vt 0.427138 0.000000
vt 0.572862 0.302138
vt 0.427138 0.302138
vt 0.625000 0.802138
vt 0.625000 0.947862
vt 0.322862 0.750000
vt 0.625000 0.302138
vn 0.0000 1.0000 0.0000
vn 1.0000 0.0000 0.0000
vn 0.0000 0.0000 -1.0000
vn 0.0000 -1.0000 0.0000
vn -1.0000 0.0000 0.0000
vn -0.5774 -0.5774 0.5774
vn -0.5774 0.5774 0.5774
vn -0.5774 -0.5774 -0.5774
vn -0.5774 0.5774 -0.5774
vn 0.5774 -0.5774 0.5774
vn 0.5774 0.5774 0.5774
vn 0.5774 -0.5774 -0.5774
vn 0.5774 0.5774 -0.5774
vn 0.7071 0.7071 0.0000
vn 0.0000 0.7071 0.7071
vn -0.7071 0.0000 0.7071
vn 0.7071 0.0000 -0.7071
vn -0.7071 0.0000 -0.7071
vn 0.7071 0.0000 0.7071
vn 0.0000 -0.7071 -0.7071
vn -0.7071 -0.7071 0.0000
vn 0.0000 0.7071 -0.7071
vn 0.7071 -0.7071 0.0000
vn 0.0000 -0.7071 0.7071
vn -0.7071 0.7071 0.0000
vn 0.0000 0.0000 1.0000
usemtl Material
s off
f 18/1/1 22/2/1 12/3/1 4/4/1
f 24/5/2 16/6/2 14/7/2 19/8/2
f 11/9/3 23/10/3 20/11/3 9/12/3
f 2/13/4 8/14/4 21/15/4 15/16/4
f 6/17/5 10/18/5 7/19/5 3/20/5
f 1/21/6 3/22/6 2/23/6
f 4/4/7 6/24/7 5/25/7
f 7/19/8 9/26/8 8/27/8
f 10/28/9 12/29/9 11/30/9
f 13/31/10 15/32/10 14/33/10
f 16/6/11 18/34/11 17/35/11
f 19/8/12 21/36/12 20/37/12
f 22/2/13 24/38/13 23/39/13
f 18/1/14 16/40/14 24/38/14 22/2/14
f 4/4/15 5/25/15 17/41/15 18/1/15
f 3/20/16 1/21/16 5/42/16 6/17/16
f 23/43/17 24/5/17 19/8/17 20/37/17
f 9/12/18 7/19/18 10/18/18 11/9/18
f 13/44/19 14/7/19 16/6/19 17/45/19
f 8/46/20 9/12/20 20/11/20 21/47/20
f 2/13/21 3/20/21 7/19/21 8/14/21
f 22/2/22 23/39/22 11/48/22 12/3/22
f 21/36/23 19/8/23 14/7/23 15/32/23
f 15/49/24 13/44/24 1/21/24 2/23/24
f 12/3/25 10/18/25 6/17/25 4/4/25
f 17/45/26 5/42/26 1/21/26 13/44/26
f 42/50/4 28/51/4 36/52/4 46/53/4
f 48/54/5 43/55/5 38/56/5 40/57/5
f 35/58/26 33/59/26 44/60/26 47/61/26
f 26/62/1 39/63/1 45/64/1 32/65/1
f 30/66/2 27/67/2 31/68/2 34/69/2
f 25/70/13 26/71/13 27/72/13
f 28/51/12 29/73/12 30/74/12
f 31/68/11 32/75/11 33/76/11
f 34/77/10 35/78/10 36/79/10
f 37/80/9 38/81/9 39/82/9
f 40/57/8 41/83/8 42/84/8
f 43/55/7 44/85/7 45/86/7
f 46/53/6 47/87/6 48/88/6
f 42/50/21 46/53/21 48/88/21 40/89/21
f 28/51/20 42/50/20 41/90/20 29/73/20
f 27/67/17 30/66/17 29/91/17 25/70/17
f 47/92/16 44/85/16 43/55/16 48/54/16
f 33/59/19 35/58/19 34/69/19 31/68/19
f 37/93/18 41/94/18 40/57/18 38/56/18
f 32/95/15 45/96/15 44/60/15 33/59/15
f 26/62/14 32/65/14 31/68/14 27/67/14
f 46/53/24 36/52/24 35/97/24 47/87/24
f 45/86/25 39/82/25 38/56/25 43/55/25
f 39/98/22 26/71/22 25/70/22 37/93/22
f 36/52/23 28/51/23 30/66/23 34/69/23
f 41/94/3 37/93/3 25/70/3 29/91/3
